<svg width="168" height="169" viewBox="0 0 168 169" fill="none" xmlns="http://www.w3.org/2000/svg">
<ellipse cx="2.46661" cy="3.16873" rx="2.46661" ry="2.4617" fill="#F83718"/>
<ellipse cx="17.2674" cy="3.16873" rx="2.46661" ry="2.4617" fill="#F83718"/>
<ellipse cx="32.0643" cy="3.16873" rx="2.46661" ry="2.4617" fill="#F83718"/>
<ellipse cx="46.8651" cy="3.16873" rx="2.46661" ry="2.4617" fill="#F83718"/>
<ellipse cx="61.6639" cy="3.16873" rx="2.46661" ry="2.4617" fill="#F83718"/>
<ellipse cx="76.4647" cy="3.16873" rx="2.46661" ry="2.4617" fill="#F83718"/>
<ellipse cx="91.2674" cy="3.16873" rx="2.46661" ry="2.4617" fill="#F83718"/>
<ellipse cx="106.064" cy="3.16873" rx="2.46661" ry="2.4617" fill="#F83718"/>
<ellipse cx="2.46661" cy="17.9384" rx="2.46661" ry="2.4617" fill="#F83718"/>
<ellipse cx="17.2694" cy="17.9383" rx="2.46661" ry="2.4617" fill="#F83718"/>
<ellipse cx="32.0643" cy="17.9383" rx="2.46661" ry="2.4617" fill="#F83718"/>
<ellipse cx="46.8651" cy="17.9384" rx="2.46661" ry="2.4617" fill="#F83718"/>
<ellipse cx="61.6639" cy="17.9383" rx="2.46661" ry="2.4617" fill="#F83718"/>
<ellipse cx="76.4647" cy="17.9383" rx="2.46661" ry="2.4617" fill="#F83718"/>
<ellipse cx="91.2674" cy="17.9383" rx="2.46661" ry="2.4617" fill="#F83718"/>
<ellipse cx="106.064" cy="17.9383" rx="2.46661" ry="2.4617" fill="#F83718"/>
<ellipse cx="2.46661" cy="32.7097" rx="2.46661" ry="2.4617" fill="#F83718"/>
<ellipse cx="17.2694" cy="32.7097" rx="2.46661" ry="2.4617" fill="#F83718"/>
<ellipse cx="32.0643" cy="32.7097" rx="2.46661" ry="2.4617" fill="#F83718"/>
<ellipse cx="46.8651" cy="32.7097" rx="2.46661" ry="2.4617" fill="#F83718"/>
<ellipse cx="61.6639" cy="32.7097" rx="2.46661" ry="2.4617" fill="#F83718"/>
<ellipse cx="76.4647" cy="32.7097" rx="2.46661" ry="2.4617" fill="#F83718"/>
<ellipse cx="91.2674" cy="32.7097" rx="2.46661" ry="2.4617" fill="#F83718"/>
<ellipse cx="106.064" cy="32.7097" rx="2.46661" ry="2.4617" fill="#F83718"/>
<ellipse cx="2.46661" cy="47.4803" rx="2.46661" ry="2.4617" fill="#F83718"/>
<ellipse cx="17.2694" cy="47.4803" rx="2.46661" ry="2.4617" fill="#F83718"/>
<ellipse cx="32.0643" cy="47.4803" rx="2.46661" ry="2.4617" fill="#F83718"/>
<ellipse cx="46.8651" cy="47.4803" rx="2.46661" ry="2.4617" fill="#F83718"/>
<ellipse cx="61.6639" cy="47.4803" rx="2.46661" ry="2.4617" fill="#F83718"/>
<ellipse cx="76.4647" cy="47.4803" rx="2.46661" ry="2.4617" fill="#F83718"/>
<ellipse cx="91.2674" cy="47.4803" rx="2.46661" ry="2.4617" fill="#F83718"/>
<ellipse cx="106.064" cy="47.4803" rx="2.46661" ry="2.4617" fill="#F83718"/>
<ellipse cx="2.46661" cy="62.2487" rx="2.46661" ry="2.4617" fill="#F83718"/>
<ellipse cx="17.2694" cy="62.2488" rx="2.46661" ry="2.4617" fill="#F83718"/>
<ellipse cx="32.0643" cy="62.2488" rx="2.46661" ry="2.4617" fill="#F83718"/>
<ellipse cx="46.8651" cy="62.2487" rx="2.46661" ry="2.4617" fill="#F83718"/>
<ellipse cx="61.6639" cy="62.2488" rx="2.46661" ry="2.4617" fill="#F83718"/>
<ellipse cx="76.4647" cy="62.2488" rx="2.46661" ry="2.4617" fill="#F83718"/>
<ellipse cx="91.2674" cy="62.2488" rx="2.46661" ry="2.4617" fill="#F83718"/>
<ellipse cx="106.064" cy="62.2488" rx="2.46661" ry="2.4617" fill="#F83718"/>
<ellipse cx="2.46661" cy="77.0193" rx="2.46661" ry="2.4617" fill="#F83718"/>
<ellipse cx="17.2694" cy="77.0193" rx="2.46661" ry="2.4617" fill="#F83718"/>
<ellipse cx="32.0643" cy="77.0193" rx="2.46661" ry="2.4617" fill="#F83718"/>
<ellipse cx="46.8651" cy="77.0193" rx="2.46661" ry="2.4617" fill="#F83718"/>
<ellipse cx="61.6639" cy="77.0193" rx="2.46661" ry="2.4617" fill="#F83718"/>
<ellipse cx="76.4647" cy="77.0193" rx="2.46661" ry="2.4617" fill="#F83718"/>
<ellipse cx="91.2674" cy="77.0193" rx="2.46661" ry="2.4617" fill="#F83718"/>
<ellipse cx="106.064" cy="77.0193" rx="2.46661" ry="2.4617" fill="#F83718"/>
<ellipse cx="2.46661" cy="91.7898" rx="2.46661" ry="2.4617" fill="#F83718"/>
<ellipse cx="17.2694" cy="91.7898" rx="2.46661" ry="2.4617" fill="#F83718"/>
<ellipse cx="32.0643" cy="91.7898" rx="2.46661" ry="2.4617" fill="#F83718"/>
<ellipse cx="46.8651" cy="91.7898" rx="2.46661" ry="2.4617" fill="#F83718"/>
<ellipse cx="61.6639" cy="91.7898" rx="2.46661" ry="2.4617" fill="#F83718"/>
<ellipse cx="76.4647" cy="91.7898" rx="2.46661" ry="2.4617" fill="#F83718"/>
<ellipse cx="91.2674" cy="91.7898" rx="2.46661" ry="2.4617" fill="#F83718"/>
<ellipse cx="106.064" cy="91.7898" rx="2.46661" ry="2.4617" fill="#F83718"/>
<ellipse cx="2.46661" cy="106.559" rx="2.46661" ry="2.4617" fill="#F83718"/>
<ellipse cx="17.2694" cy="106.559" rx="2.46661" ry="2.4617" fill="#F83718"/>
<ellipse cx="32.0643" cy="106.559" rx="2.46661" ry="2.4617" fill="#F83718"/>
<ellipse cx="46.8651" cy="106.559" rx="2.46661" ry="2.4617" fill="#F83718"/>
<ellipse cx="61.6639" cy="106.559" rx="2.46661" ry="2.4617" fill="#F83718"/>
<ellipse cx="76.4647" cy="106.559" rx="2.46661" ry="2.4617" fill="#F83718"/>
<ellipse cx="91.2674" cy="106.559" rx="2.46661" ry="2.4617" fill="#F83718"/>
<ellipse cx="106.064" cy="106.559" rx="2.46661" ry="2.4617" fill="#F83718"/>
<ellipse cx="2.46661" cy="121.33" rx="2.46661" ry="2.4617" fill="#F83718"/>
<ellipse cx="17.2694" cy="121.33" rx="2.46661" ry="2.4617" fill="#F83718"/>
<ellipse cx="32.0643" cy="121.33" rx="2.46661" ry="2.4617" fill="#F83718"/>
<ellipse cx="46.8651" cy="121.33" rx="2.46661" ry="2.4617" fill="#F83718"/>
<ellipse cx="61.6639" cy="121.33" rx="2.46661" ry="2.4617" fill="#F83718"/>
<ellipse cx="76.4647" cy="121.33" rx="2.46661" ry="2.4617" fill="#F83718"/>
<ellipse cx="91.2674" cy="121.33" rx="2.46661" ry="2.4617" fill="#F83718"/>
<ellipse cx="106.064" cy="121.33" rx="2.46661" ry="2.4617" fill="#F83718"/>
<ellipse cx="2.46661" cy="136.1" rx="2.46661" ry="2.4617" fill="#F83718"/>
<ellipse cx="17.2694" cy="136.1" rx="2.46661" ry="2.4617" fill="#F83718"/>
<ellipse cx="32.0643" cy="136.1" rx="2.46661" ry="2.4617" fill="#F83718"/>
<ellipse cx="46.8651" cy="136.1" rx="2.46661" ry="2.4617" fill="#F83718"/>
<ellipse cx="61.6639" cy="136.1" rx="2.46661" ry="2.4617" fill="#F83718"/>
<ellipse cx="76.4647" cy="136.1" rx="2.46661" ry="2.4617" fill="#F83718"/>
<ellipse cx="91.2674" cy="136.1" rx="2.46661" ry="2.4617" fill="#F83718"/>
<ellipse cx="106.064" cy="136.1" rx="2.46661" ry="2.4617" fill="#F83718"/>
<ellipse cx="2.46661" cy="150.87" rx="2.46661" ry="2.4617" fill="#F83718"/>
<ellipse cx="17.2694" cy="150.87" rx="2.46661" ry="2.4617" fill="#F83718"/>
<ellipse cx="32.0643" cy="150.87" rx="2.46661" ry="2.4617" fill="#F83718"/>
<ellipse cx="46.8651" cy="150.87" rx="2.46661" ry="2.4617" fill="#F83718"/>
<ellipse cx="61.6639" cy="150.87" rx="2.46661" ry="2.4617" fill="#F83718"/>
<ellipse cx="76.4647" cy="150.87" rx="2.46661" ry="2.4617" fill="#F83718"/>
<ellipse cx="91.2674" cy="150.87" rx="2.46661" ry="2.4617" fill="#F83718"/>
<ellipse cx="106.064" cy="150.87" rx="2.46661" ry="2.4617" fill="#F83718"/>
<ellipse cx="2.46661" cy="165.641" rx="2.46661" ry="2.4617" fill="#F83718"/>
<ellipse cx="17.2694" cy="165.641" rx="2.46661" ry="2.4617" fill="#F83718"/>
<ellipse cx="32.0643" cy="165.641" rx="2.46661" ry="2.4617" fill="#F83718"/>
<ellipse cx="46.8651" cy="165.641" rx="2.46661" ry="2.4617" fill="#F83718"/>
<ellipse cx="61.6639" cy="165.641" rx="2.46661" ry="2.4617" fill="#F83718"/>
<ellipse cx="76.4647" cy="165.641" rx="2.46661" ry="2.4617" fill="#F83718"/>
<ellipse cx="91.2674" cy="165.641" rx="2.46661" ry="2.4617" fill="#F83718"/>
<ellipse cx="106.064" cy="165.641" rx="2.46661" ry="2.4617" fill="#F83718"/>
<ellipse cx="120.271" cy="3.16873" rx="2.46661" ry="2.4617" fill="#F83718"/>
<ellipse cx="135.072" cy="3.16873" rx="2.46661" ry="2.4617" fill="#F83718"/>
<ellipse cx="149.869" cy="3.16873" rx="2.46661" ry="2.4617" fill="#F83718"/>
<ellipse cx="164.672" cy="3.16873" rx="2.46661" ry="2.4617" fill="#F83718"/>
<ellipse cx="120.271" cy="17.9383" rx="2.46661" ry="2.4617" fill="#F83718"/>
<ellipse cx="135.076" cy="17.9383" rx="2.46661" ry="2.4617" fill="#F83718"/>
<ellipse cx="149.869" cy="17.9383" rx="2.46661" ry="2.4617" fill="#F83718"/>
<ellipse cx="164.672" cy="17.9383" rx="2.46661" ry="2.4617" fill="#F83718"/>
<ellipse cx="120.271" cy="32.7097" rx="2.46661" ry="2.4617" fill="#F83718"/>
<ellipse cx="135.076" cy="32.7097" rx="2.46661" ry="2.4617" fill="#F83718"/>
<ellipse cx="149.869" cy="32.7097" rx="2.46661" ry="2.4617" fill="#F83718"/>
<ellipse cx="164.672" cy="32.7097" rx="2.46661" ry="2.4617" fill="#F83718"/>
<ellipse cx="120.271" cy="47.4803" rx="2.46661" ry="2.4617" fill="#F83718"/>
<ellipse cx="135.076" cy="47.4803" rx="2.46661" ry="2.4617" fill="#F83718"/>
<ellipse cx="149.869" cy="47.4803" rx="2.46661" ry="2.4617" fill="#F83718"/>
<ellipse cx="164.672" cy="47.4803" rx="2.46661" ry="2.4617" fill="#F83718"/>
<ellipse cx="120.271" cy="62.2488" rx="2.46661" ry="2.4617" fill="#F83718"/>
<ellipse cx="135.076" cy="62.2488" rx="2.46661" ry="2.4617" fill="#F83718"/>
<ellipse cx="149.869" cy="62.2488" rx="2.46661" ry="2.4617" fill="#F83718"/>
<ellipse cx="164.672" cy="62.2488" rx="2.46661" ry="2.4617" fill="#F83718"/>
<ellipse cx="120.271" cy="77.0193" rx="2.46661" ry="2.4617" fill="#F83718"/>
<ellipse cx="135.076" cy="77.0193" rx="2.46661" ry="2.4617" fill="#F83718"/>
<ellipse cx="149.869" cy="77.0193" rx="2.46661" ry="2.4617" fill="#F83718"/>
<ellipse cx="164.672" cy="77.0193" rx="2.46661" ry="2.4617" fill="#F83718"/>
<ellipse cx="120.271" cy="91.7898" rx="2.46661" ry="2.4617" fill="#F83718"/>
<ellipse cx="135.076" cy="91.7898" rx="2.46661" ry="2.4617" fill="#F83718"/>
<ellipse cx="149.869" cy="91.7898" rx="2.46661" ry="2.4617" fill="#F83718"/>
<ellipse cx="164.672" cy="91.7898" rx="2.46661" ry="2.4617" fill="#F83718"/>
<ellipse cx="120.271" cy="106.559" rx="2.46661" ry="2.4617" fill="#F83718"/>
<ellipse cx="135.076" cy="106.559" rx="2.46661" ry="2.4617" fill="#F83718"/>
<ellipse cx="149.869" cy="106.559" rx="2.46661" ry="2.4617" fill="#F83718"/>
<ellipse cx="164.672" cy="106.559" rx="2.46661" ry="2.4617" fill="#F83718"/>
<ellipse cx="120.271" cy="121.33" rx="2.46661" ry="2.4617" fill="#F83718"/>
<ellipse cx="135.076" cy="121.33" rx="2.46661" ry="2.4617" fill="#F83718"/>
<ellipse cx="149.869" cy="121.33" rx="2.46661" ry="2.4617" fill="#F83718"/>
<ellipse cx="164.672" cy="121.33" rx="2.46661" ry="2.4617" fill="#F83718"/>
<ellipse cx="120.271" cy="136.1" rx="2.46661" ry="2.4617" fill="#F83718"/>
<ellipse cx="135.076" cy="136.1" rx="2.46661" ry="2.4617" fill="#F83718"/>
<ellipse cx="149.869" cy="136.1" rx="2.46661" ry="2.4617" fill="#F83718"/>
<ellipse cx="164.672" cy="136.1" rx="2.46661" ry="2.4617" fill="#F83718"/>
<ellipse cx="120.271" cy="150.87" rx="2.46661" ry="2.4617" fill="#F83718"/>
<ellipse cx="135.076" cy="150.87" rx="2.46661" ry="2.4617" fill="#F83718"/>
<ellipse cx="149.869" cy="150.87" rx="2.46661" ry="2.4617" fill="#F83718"/>
<ellipse cx="164.672" cy="150.87" rx="2.46661" ry="2.4617" fill="#F83718"/>
<ellipse cx="120.271" cy="165.641" rx="2.46661" ry="2.4617" fill="#F83718"/>
<ellipse cx="135.076" cy="165.641" rx="2.46661" ry="2.4617" fill="#F83718"/>
<ellipse cx="149.869" cy="165.641" rx="2.46661" ry="2.4617" fill="#F83718"/>
<ellipse cx="164.672" cy="165.641" rx="2.46661" ry="2.4617" fill="#F83718"/>
</svg>
